<svg width="1728" height="274" viewBox="0 0 1728 274" fill="none" xmlns="http://www.w3.org/2000/svg">
<rect x="169" width="1506" height="252" rx="126" fill="url(#paint0_linear_118_981)"/>
<rect x="448" width="1506" height="252" rx="126" fill="#5E7B7B"/>
<rect x="692" width="1506" height="252" rx="126" fill="#80A3A3"/>
<path d="M911.112 85.376H946.824C952.797 85.376 958.557 86.3147 964.104 88.192C969.651 89.984 974.557 92.7573 978.824 96.512C983.091 100.267 986.504 105.003 989.064 110.72C991.624 116.352 992.904 123.008 992.904 130.688C992.904 138.453 991.411 145.195 988.424 150.912C985.523 156.544 981.725 161.237 977.032 164.992C972.424 168.661 967.261 171.435 961.544 173.312C955.912 175.104 950.365 176 944.904 176H911.112V85.376ZM939.272 161.408C944.307 161.408 949.043 160.853 953.48 159.744C958.003 158.549 961.928 156.757 965.256 154.368C968.584 151.893 971.187 148.736 973.064 144.896C975.027 140.971 976.008 136.235 976.008 130.688C976.008 125.227 975.155 120.533 973.448 116.608C971.741 112.683 969.352 109.525 966.28 107.136C963.293 104.661 959.709 102.869 955.528 101.76C951.432 100.565 946.909 99.968 941.96 99.968H927.24V161.408H939.272ZM1019.12 150.656C1019.63 155.264 1021.42 158.848 1024.49 161.408C1027.57 163.968 1031.28 165.248 1035.63 165.248C1039.47 165.248 1042.67 164.48 1045.23 162.944C1047.87 161.323 1050.18 159.317 1052.14 156.928L1063.15 165.248C1059.57 169.685 1055.55 172.843 1051.12 174.72C1046.68 176.597 1042.03 177.536 1037.17 177.536C1032.56 177.536 1028.21 176.768 1024.11 175.232C1020.01 173.696 1016.47 171.52 1013.49 168.704C1010.5 165.888 1008.11 162.517 1006.32 158.592C1004.61 154.581 1003.76 150.144 1003.76 145.28C1003.76 140.416 1004.61 136.021 1006.32 132.096C1008.11 128.085 1010.5 124.672 1013.49 121.856C1016.47 119.04 1020.01 116.864 1024.11 115.328C1028.21 113.792 1032.56 113.024 1037.17 113.024C1041.43 113.024 1045.31 113.792 1048.81 115.328C1052.4 116.779 1055.43 118.912 1057.9 121.728C1060.46 124.544 1062.42 128.043 1063.79 132.224C1065.24 136.32 1065.97 141.056 1065.97 146.432V150.656H1019.12ZM1050.61 139.136C1050.52 134.613 1049.11 131.072 1046.38 128.512C1043.65 125.867 1039.85 124.544 1034.99 124.544C1030.38 124.544 1026.71 125.867 1023.98 128.512C1021.34 131.157 1019.71 134.699 1019.12 139.136H1050.61ZM1113.1 131.584C1110.11 127.403 1106.1 125.312 1101.07 125.312C1099.02 125.312 1097.01 125.824 1095.05 126.848C1093.09 127.872 1092.11 129.536 1092.11 131.84C1092.11 133.717 1092.92 135.083 1094.54 135.936C1096.16 136.789 1098.21 137.515 1100.68 138.112C1103.16 138.709 1105.8 139.349 1108.62 140.032C1111.52 140.629 1114.21 141.611 1116.68 142.976C1119.16 144.256 1121.2 146.048 1122.83 148.352C1124.45 150.656 1125.26 153.813 1125.26 157.824C1125.26 161.493 1124.45 164.608 1122.83 167.168C1121.29 169.643 1119.24 171.648 1116.68 173.184C1114.21 174.72 1111.39 175.829 1108.23 176.512C1105.08 177.195 1101.92 177.536 1098.76 177.536C1093.98 177.536 1089.59 176.853 1085.58 175.488C1081.57 174.123 1077.98 171.648 1074.83 168.064L1085.07 158.464C1087.03 160.683 1089.12 162.517 1091.34 163.968C1093.64 165.333 1096.41 166.016 1099.66 166.016C1100.77 166.016 1101.92 165.888 1103.11 165.632C1104.31 165.376 1105.42 164.949 1106.44 164.352C1107.47 163.755 1108.28 163.029 1108.87 162.176C1109.56 161.237 1109.9 160.171 1109.9 158.976C1109.9 156.843 1109.09 155.264 1107.47 154.24C1105.84 153.216 1103.8 152.405 1101.32 151.808C1098.85 151.125 1096.16 150.528 1093.26 150.016C1090.44 149.419 1087.8 148.523 1085.32 147.328C1082.85 146.048 1080.8 144.299 1079.18 142.08C1077.56 139.861 1076.75 136.789 1076.75 132.864C1076.75 129.451 1077.43 126.507 1078.79 124.032C1080.24 121.472 1082.12 119.381 1084.43 117.76C1086.73 116.139 1089.37 114.944 1092.36 114.176C1095.35 113.408 1098.38 113.024 1101.45 113.024C1105.55 113.024 1109.6 113.749 1113.61 115.2C1117.62 116.565 1120.86 118.955 1123.34 122.368L1113.1 131.584ZM1130.04 127.616V114.56H1142.71V96.768H1158.07V114.56H1174.96V127.616H1158.07V154.496C1158.07 157.568 1158.62 160 1159.73 161.792C1160.93 163.584 1163.23 164.48 1166.64 164.48C1168.01 164.48 1169.5 164.352 1171.12 164.096C1172.75 163.755 1174.03 163.243 1174.96 162.56V175.488C1173.34 176.256 1171.34 176.768 1168.95 177.024C1166.64 177.365 1164.6 177.536 1162.8 177.536C1158.71 177.536 1155.34 177.067 1152.69 176.128C1150.13 175.275 1148.08 173.952 1146.55 172.16C1145.1 170.283 1144.07 167.979 1143.48 165.248C1142.96 162.517 1142.71 159.36 1142.71 155.776V127.616H1130.04ZM1187.34 114.56H1202.7V176H1187.34V114.56ZM1185.16 93.696C1185.16 91.2213 1186.06 89.088 1187.85 87.296C1189.72 85.4187 1192.07 84.48 1194.89 84.48C1197.7 84.48 1200.05 85.376 1201.93 87.168C1203.89 88.8747 1204.87 91.0507 1204.87 93.696C1204.87 96.3413 1203.89 98.56 1201.93 100.352C1200.05 102.059 1197.7 102.912 1194.89 102.912C1192.07 102.912 1189.72 102.016 1187.85 100.224C1186.06 98.3467 1185.16 96.1707 1185.16 93.696ZM1220.33 114.56H1234.92V124.416H1235.18C1236.63 121.344 1238.85 118.699 1241.83 116.48C1244.82 114.176 1248.87 113.024 1253.99 113.024C1258.09 113.024 1261.55 113.707 1264.36 115.072C1267.26 116.437 1269.61 118.229 1271.4 120.448C1273.19 122.667 1274.47 125.227 1275.24 128.128C1276.01 131.029 1276.39 134.059 1276.39 137.216V176H1261.03V144.896C1261.03 143.189 1260.95 141.312 1260.78 139.264C1260.61 137.131 1260.14 135.168 1259.37 133.376C1258.69 131.499 1257.58 129.963 1256.04 128.768C1254.51 127.488 1252.41 126.848 1249.77 126.848C1247.21 126.848 1245.03 127.275 1243.24 128.128C1241.53 128.981 1240.08 130.133 1238.89 131.584C1237.78 133.035 1236.97 134.699 1236.46 136.576C1235.95 138.453 1235.69 140.416 1235.69 142.464V176H1220.33V114.56ZM1332.23 167.552H1331.85C1329.63 171.051 1326.81 173.611 1323.4 175.232C1319.98 176.768 1316.23 177.536 1312.13 177.536C1309.32 177.536 1306.54 177.152 1303.81 176.384C1301.17 175.616 1298.78 174.464 1296.65 172.928C1294.6 171.392 1292.93 169.472 1291.65 167.168C1290.37 164.864 1289.73 162.176 1289.73 159.104C1289.73 155.776 1290.33 152.96 1291.53 150.656C1292.72 148.267 1294.3 146.304 1296.26 144.768C1298.31 143.147 1300.66 141.867 1303.3 140.928C1305.95 139.989 1308.68 139.307 1311.49 138.88C1314.39 138.368 1317.3 138.069 1320.2 137.984C1323.1 137.813 1325.83 137.728 1328.39 137.728H1332.23V136.064C1332.23 132.224 1330.91 129.365 1328.26 127.488C1325.62 125.525 1322.25 124.544 1318.15 124.544C1314.91 124.544 1311.88 125.141 1309.06 126.336C1306.25 127.445 1303.81 128.981 1301.77 130.944L1293.7 122.88C1297.11 119.381 1301.08 116.864 1305.61 115.328C1310.21 113.792 1314.95 113.024 1319.81 113.024C1324.17 113.024 1327.83 113.536 1330.82 114.56C1333.81 115.499 1336.28 116.736 1338.25 118.272C1340.21 119.808 1341.7 121.6 1342.73 123.648C1343.83 125.611 1344.6 127.616 1345.03 129.664C1345.54 131.712 1345.84 133.717 1345.93 135.68C1346.01 137.557 1346.05 139.221 1346.05 140.672V176H1332.23V167.552ZM1331.33 148.48H1328.13C1326 148.48 1323.61 148.565 1320.97 148.736C1318.32 148.907 1315.8 149.333 1313.41 150.016C1311.11 150.613 1309.15 151.552 1307.53 152.832C1305.9 154.027 1305.09 155.733 1305.09 157.952C1305.09 159.403 1305.39 160.64 1305.99 161.664C1306.67 162.603 1307.53 163.413 1308.55 164.096C1309.57 164.779 1310.73 165.291 1312.01 165.632C1313.29 165.888 1314.57 166.016 1315.85 166.016C1321.14 166.016 1325.02 164.779 1327.49 162.304C1330.05 159.744 1331.33 156.288 1331.33 151.936V148.48ZM1355.41 127.616V114.56H1368.08V96.768H1383.44V114.56H1400.34V127.616H1383.44V154.496C1383.44 157.568 1384 160 1385.11 161.792C1386.3 163.584 1388.61 164.48 1392.02 164.48C1393.38 164.48 1394.88 164.352 1396.5 164.096C1398.12 163.755 1399.4 163.243 1400.34 162.56V175.488C1398.72 176.256 1396.71 176.768 1394.32 177.024C1392.02 177.365 1389.97 177.536 1388.18 177.536C1384.08 177.536 1380.71 177.067 1378.07 176.128C1375.51 175.275 1373.46 173.952 1371.92 172.16C1370.47 170.283 1369.45 167.979 1368.85 165.248C1368.34 162.517 1368.08 159.36 1368.08 155.776V127.616H1355.41ZM1412.71 114.56H1428.07V176H1412.71V114.56ZM1410.53 93.696C1410.53 91.2213 1411.43 89.088 1413.22 87.296C1415.1 85.4187 1417.45 84.48 1420.26 84.48C1423.08 84.48 1425.42 85.376 1427.3 87.168C1429.26 88.8747 1430.25 91.0507 1430.25 93.696C1430.25 96.3413 1429.26 98.56 1427.3 100.352C1425.42 102.059 1423.08 102.912 1420.26 102.912C1417.45 102.912 1415.1 102.016 1413.22 100.224C1411.43 98.3467 1410.53 96.1707 1410.53 93.696ZM1442.63 145.28C1442.63 140.416 1443.49 136.021 1445.19 132.096C1446.98 128.085 1449.37 124.672 1452.36 121.856C1455.35 119.04 1458.89 116.864 1462.98 115.328C1467.08 113.792 1471.43 113.024 1476.04 113.024C1480.65 113.024 1485 113.792 1489.1 115.328C1493.19 116.864 1496.73 119.04 1499.72 121.856C1502.71 124.672 1505.05 128.085 1506.76 132.096C1508.55 136.021 1509.45 140.416 1509.45 145.28C1509.45 150.144 1508.55 154.581 1506.76 158.592C1505.05 162.517 1502.71 165.888 1499.72 168.704C1496.73 171.52 1493.19 173.696 1489.1 175.232C1485 176.768 1480.65 177.536 1476.04 177.536C1471.43 177.536 1467.08 176.768 1462.98 175.232C1458.89 173.696 1455.35 171.52 1452.36 168.704C1449.37 165.888 1446.98 162.517 1445.19 158.592C1443.49 154.581 1442.63 150.144 1442.63 145.28ZM1457.99 145.28C1457.99 147.669 1458.38 149.973 1459.14 152.192C1460 154.411 1461.19 156.373 1462.73 158.08C1464.35 159.787 1466.27 161.152 1468.49 162.176C1470.71 163.2 1473.22 163.712 1476.04 163.712C1478.86 163.712 1481.37 163.2 1483.59 162.176C1485.81 161.152 1487.69 159.787 1489.22 158.08C1490.85 156.373 1492.04 154.411 1492.81 152.192C1493.66 149.973 1494.09 147.669 1494.09 145.28C1494.09 142.891 1493.66 140.587 1492.81 138.368C1492.04 136.149 1490.85 134.187 1489.22 132.48C1487.69 130.773 1485.81 129.408 1483.59 128.384C1481.37 127.36 1478.86 126.848 1476.04 126.848C1473.22 126.848 1470.71 127.36 1468.49 128.384C1466.27 129.408 1464.35 130.773 1462.73 132.48C1461.19 134.187 1460 136.149 1459.14 138.368C1458.38 140.587 1457.99 142.891 1457.99 145.28ZM1523.83 114.56H1538.42V124.416H1538.68C1540.13 121.344 1542.35 118.699 1545.33 116.48C1548.32 114.176 1552.37 113.024 1557.49 113.024C1561.59 113.024 1565.05 113.707 1567.86 115.072C1570.76 116.437 1573.11 118.229 1574.9 120.448C1576.69 122.667 1577.97 125.227 1578.74 128.128C1579.51 131.029 1579.89 134.059 1579.89 137.216V176H1564.53V144.896C1564.53 143.189 1564.45 141.312 1564.28 139.264C1564.11 137.131 1563.64 135.168 1562.87 133.376C1562.19 131.499 1561.08 129.963 1559.54 128.768C1558.01 127.488 1555.91 126.848 1553.27 126.848C1550.71 126.848 1548.53 127.275 1546.74 128.128C1545.03 128.981 1543.58 130.133 1542.39 131.584C1541.28 133.035 1540.47 134.699 1539.96 136.576C1539.45 138.453 1539.19 140.416 1539.19 142.464V176H1523.83V114.56ZM1630.1 131.584C1627.11 127.403 1623.1 125.312 1618.07 125.312C1616.02 125.312 1614.01 125.824 1612.05 126.848C1610.09 127.872 1609.11 129.536 1609.11 131.84C1609.11 133.717 1609.92 135.083 1611.54 135.936C1613.16 136.789 1615.21 137.515 1617.68 138.112C1620.16 138.709 1622.8 139.349 1625.62 140.032C1628.52 140.629 1631.21 141.611 1633.68 142.976C1636.16 144.256 1638.2 146.048 1639.83 148.352C1641.45 150.656 1642.26 153.813 1642.26 157.824C1642.26 161.493 1641.45 164.608 1639.83 167.168C1638.29 169.643 1636.24 171.648 1633.68 173.184C1631.21 174.72 1628.39 175.829 1625.23 176.512C1622.08 177.195 1618.92 177.536 1615.76 177.536C1610.98 177.536 1606.59 176.853 1602.58 175.488C1598.57 174.123 1594.98 171.648 1591.83 168.064L1602.07 158.464C1604.03 160.683 1606.12 162.517 1608.34 163.968C1610.64 165.333 1613.41 166.016 1616.66 166.016C1617.77 166.016 1618.92 165.888 1620.11 165.632C1621.31 165.376 1622.42 164.949 1623.44 164.352C1624.47 163.755 1625.28 163.029 1625.87 162.176C1626.56 161.237 1626.9 160.171 1626.9 158.976C1626.9 156.843 1626.09 155.264 1624.47 154.24C1622.84 153.216 1620.8 152.405 1618.32 151.808C1615.85 151.125 1613.16 150.528 1610.26 150.016C1607.44 149.419 1604.8 148.523 1602.32 147.328C1599.85 146.048 1597.8 144.299 1596.18 142.08C1594.56 139.861 1593.75 136.789 1593.75 132.864C1593.75 129.451 1594.43 126.507 1595.79 124.032C1597.24 121.472 1599.12 119.381 1601.43 117.76C1603.73 116.139 1606.37 114.944 1609.36 114.176C1612.35 113.408 1615.38 113.024 1618.45 113.024C1622.55 113.024 1626.6 113.749 1630.61 115.2C1634.62 116.565 1637.86 118.955 1640.34 122.368L1630.1 131.584Z" fill="white"/>
<path d="M0 200C0 159.131 33.1309 126 74 126H766C806.869 126 840 159.131 840 200C840 240.869 806.869 274 766 274H74C33.1309 274 0 240.869 0 200Z" fill="#7CC6C6"/>
<path d="M168 186.512H172.968L177.756 204.872H177.828L183.552 186.512H188.016L193.632 204.872H193.704L198.708 186.512H203.316L195.9 212H191.58L185.676 192.596H185.604L179.7 212H175.524L168 186.512ZM210.1 197.132H210.172C210.508 196.412 211.096 195.764 211.936 195.188C212.8 194.588 213.904 194.288 215.248 194.288C216.4 194.288 217.372 194.48 218.164 194.864C218.98 195.248 219.64 195.752 220.144 196.376C220.648 197 221.008 197.72 221.224 198.536C221.44 199.352 221.548 200.204 221.548 201.092V212H217.228V203.252C217.228 202.772 217.204 202.244 217.156 201.668C217.108 201.068 216.976 200.516 216.76 200.012C216.568 199.484 216.256 199.052 215.824 198.716C215.392 198.356 214.804 198.176 214.06 198.176C213.34 198.176 212.728 198.296 212.224 198.536C211.744 198.776 211.336 199.1 211 199.508C210.688 199.916 210.46 200.384 210.316 200.912C210.172 201.44 210.1 201.992 210.1 202.568V212H205.78V184.784H210.1V197.132ZM229.908 204.872C230.052 206.168 230.556 207.176 231.42 207.896C232.284 208.616 233.328 208.976 234.552 208.976C235.632 208.976 236.532 208.76 237.252 208.328C237.996 207.872 238.644 207.308 239.196 206.636L242.292 208.976C241.284 210.224 240.156 211.112 238.908 211.64C237.66 212.168 236.352 212.432 234.984 212.432C233.688 212.432 232.464 212.216 231.312 211.784C230.16 211.352 229.164 210.74 228.324 209.948C227.484 209.156 226.812 208.208 226.308 207.104C225.828 205.976 225.588 204.728 225.588 203.36C225.588 201.992 225.828 200.756 226.308 199.652C226.812 198.524 227.484 197.564 228.324 196.772C229.164 195.98 230.16 195.368 231.312 194.936C232.464 194.504 233.688 194.288 234.984 194.288C236.184 194.288 237.276 194.504 238.26 194.936C239.268 195.344 240.12 195.944 240.816 196.736C241.536 197.528 242.088 198.512 242.472 199.688C242.88 200.84 243.084 202.172 243.084 203.684V204.872H229.908ZM238.764 201.632C238.74 200.36 238.344 199.364 237.576 198.644C236.808 197.9 235.74 197.528 234.372 197.528C233.076 197.528 232.044 197.9 231.276 198.644C230.532 199.388 230.076 200.384 229.908 201.632H238.764ZM247.124 194.72H251.444V197.456H251.516C251.996 196.448 252.68 195.668 253.568 195.116C254.456 194.564 255.476 194.288 256.628 194.288C256.892 194.288 257.144 194.312 257.384 194.36C257.648 194.408 257.912 194.468 258.176 194.54V198.716C257.816 198.62 257.456 198.548 257.096 198.5C256.76 198.428 256.424 198.392 256.088 198.392C255.08 198.392 254.264 198.584 253.64 198.968C253.04 199.328 252.572 199.748 252.236 200.228C251.924 200.708 251.708 201.188 251.588 201.668C251.492 202.148 251.444 202.508 251.444 202.748V212H247.124V194.72ZM263.939 204.872C264.083 206.168 264.587 207.176 265.451 207.896C266.315 208.616 267.359 208.976 268.583 208.976C269.663 208.976 270.563 208.76 271.283 208.328C272.027 207.872 272.675 207.308 273.227 206.636L276.323 208.976C275.315 210.224 274.187 211.112 272.939 211.64C271.691 212.168 270.383 212.432 269.015 212.432C267.719 212.432 266.495 212.216 265.343 211.784C264.191 211.352 263.195 210.74 262.355 209.948C261.515 209.156 260.843 208.208 260.339 207.104C259.859 205.976 259.619 204.728 259.619 203.36C259.619 201.992 259.859 200.756 260.339 199.652C260.843 198.524 261.515 197.564 262.355 196.772C263.195 195.98 264.191 195.368 265.343 194.936C266.495 194.504 267.719 194.288 269.015 194.288C270.215 194.288 271.307 194.504 272.291 194.936C273.299 195.344 274.151 195.944 274.847 196.736C275.567 197.528 276.119 198.512 276.503 199.688C276.911 200.84 277.115 202.172 277.115 203.684V204.872H263.939ZM272.795 201.632C272.771 200.36 272.375 199.364 271.607 198.644C270.839 197.9 269.771 197.528 268.403 197.528C267.107 197.528 266.075 197.9 265.307 198.644C264.563 199.388 264.107 200.384 263.939 201.632H272.795ZM302.607 209.624H302.499C301.875 210.608 301.083 211.328 300.123 211.784C299.163 212.216 298.107 212.432 296.955 212.432C296.163 212.432 295.383 212.324 294.615 212.108C293.871 211.892 293.199 211.568 292.599 211.136C292.023 210.704 291.555 210.164 291.195 209.516C290.835 208.868 290.655 208.112 290.655 207.248C290.655 206.312 290.823 205.52 291.159 204.872C291.495 204.2 291.939 203.648 292.491 203.216C293.067 202.76 293.727 202.4 294.471 202.136C295.215 201.872 295.983 201.68 296.775 201.56C297.591 201.416 298.407 201.332 299.223 201.308C300.039 201.26 300.807 201.236 301.527 201.236H302.607V200.768C302.607 199.688 302.235 198.884 301.491 198.356C300.747 197.804 299.799 197.528 298.647 197.528C297.735 197.528 296.883 197.696 296.091 198.032C295.299 198.344 294.615 198.776 294.039 199.328L291.771 197.06C292.731 196.076 293.847 195.368 295.119 194.936C296.415 194.504 297.747 194.288 299.115 194.288C300.339 194.288 301.371 194.432 302.211 194.72C303.051 194.984 303.747 195.332 304.299 195.764C304.851 196.196 305.271 196.7 305.559 197.276C305.871 197.828 306.087 198.392 306.207 198.968C306.351 199.544 306.435 200.108 306.459 200.66C306.483 201.188 306.495 201.656 306.495 202.064V212H302.607V209.624ZM302.355 204.26H301.455C300.855 204.26 300.183 204.284 299.439 204.332C298.695 204.38 297.987 204.5 297.315 204.692C296.667 204.86 296.115 205.124 295.659 205.484C295.203 205.82 294.975 206.3 294.975 206.924C294.975 207.332 295.059 207.68 295.227 207.968C295.419 208.232 295.659 208.46 295.947 208.652C296.235 208.844 296.559 208.988 296.919 209.084C297.279 209.156 297.639 209.192 297.999 209.192C299.487 209.192 300.579 208.844 301.275 208.148C301.995 207.428 302.355 206.456 302.355 205.232V204.26ZM311.143 194.72H315.463V197.456H315.535C316.015 196.448 316.699 195.668 317.587 195.116C318.475 194.564 319.495 194.288 320.647 194.288C320.911 194.288 321.163 194.312 321.403 194.36C321.667 194.408 321.931 194.468 322.195 194.54V198.716C321.835 198.62 321.475 198.548 321.115 198.5C320.779 198.428 320.443 198.392 320.107 198.392C319.099 198.392 318.283 198.584 317.659 198.968C317.059 199.328 316.591 199.748 316.255 200.228C315.943 200.708 315.727 201.188 315.607 201.668C315.511 202.148 315.463 202.508 315.463 202.748V212H311.143V194.72ZM327.959 204.872C328.103 206.168 328.607 207.176 329.471 207.896C330.335 208.616 331.379 208.976 332.603 208.976C333.683 208.976 334.583 208.76 335.303 208.328C336.047 207.872 336.695 207.308 337.247 206.636L340.343 208.976C339.335 210.224 338.207 211.112 336.959 211.64C335.711 212.168 334.403 212.432 333.035 212.432C331.739 212.432 330.515 212.216 329.363 211.784C328.211 211.352 327.215 210.74 326.375 209.948C325.535 209.156 324.863 208.208 324.359 207.104C323.879 205.976 323.639 204.728 323.639 203.36C323.639 201.992 323.879 200.756 324.359 199.652C324.863 198.524 325.535 197.564 326.375 196.772C327.215 195.98 328.211 195.368 329.363 194.936C330.515 194.504 331.739 194.288 333.035 194.288C334.235 194.288 335.327 194.504 336.311 194.936C337.319 195.344 338.171 195.944 338.867 196.736C339.587 197.528 340.139 198.512 340.523 199.688C340.931 200.84 341.135 202.172 341.135 203.684V204.872H327.959ZM336.815 201.632C336.791 200.36 336.395 199.364 335.627 198.644C334.859 197.9 333.791 197.528 332.423 197.528C331.127 197.528 330.095 197.9 329.327 198.644C328.583 199.388 328.127 200.384 327.959 201.632H336.815ZM353.487 194.72H358.239L363.063 206.708H363.135L367.455 194.72H371.955L363.783 215.708C363.471 216.524 363.123 217.232 362.739 217.832C362.379 218.456 361.947 218.972 361.443 219.38C360.939 219.812 360.339 220.124 359.643 220.316C358.971 220.532 358.155 220.64 357.195 220.64C356.067 220.64 354.963 220.496 353.883 220.208L354.423 216.32C354.759 216.44 355.107 216.536 355.467 216.608C355.851 216.704 356.235 216.752 356.619 216.752C357.147 216.752 357.591 216.704 357.951 216.608C358.311 216.512 358.611 216.356 358.851 216.14C359.115 215.948 359.331 215.684 359.499 215.348C359.667 215.036 359.847 214.652 360.039 214.196L360.867 212.144L353.487 194.72ZM373.631 203.36C373.631 201.992 373.871 200.756 374.351 199.652C374.855 198.524 375.527 197.564 376.367 196.772C377.207 195.98 378.203 195.368 379.355 194.936C380.507 194.504 381.731 194.288 383.027 194.288C384.323 194.288 385.547 194.504 386.699 194.936C387.851 195.368 388.847 195.98 389.687 196.772C390.527 197.564 391.187 198.524 391.667 199.652C392.171 200.756 392.423 201.992 392.423 203.36C392.423 204.728 392.171 205.976 391.667 207.104C391.187 208.208 390.527 209.156 389.687 209.948C388.847 210.74 387.851 211.352 386.699 211.784C385.547 212.216 384.323 212.432 383.027 212.432C381.731 212.432 380.507 212.216 379.355 211.784C378.203 211.352 377.207 210.74 376.367 209.948C375.527 209.156 374.855 208.208 374.351 207.104C373.871 205.976 373.631 204.728 373.631 203.36ZM377.951 203.36C377.951 204.032 378.059 204.68 378.275 205.304C378.515 205.928 378.851 206.48 379.283 206.96C379.739 207.44 380.279 207.824 380.903 208.112C381.527 208.4 382.235 208.544 383.027 208.544C383.819 208.544 384.527 208.4 385.151 208.112C385.775 207.824 386.303 207.44 386.735 206.96C387.191 206.48 387.527 205.928 387.743 205.304C387.983 204.68 388.103 204.032 388.103 203.36C388.103 202.688 387.983 202.04 387.743 201.416C387.527 200.792 387.191 200.24 386.735 199.76C386.303 199.28 385.775 198.896 385.151 198.608C384.527 198.32 383.819 198.176 383.027 198.176C382.235 198.176 381.527 198.32 380.903 198.608C380.279 198.896 379.739 199.28 379.283 199.76C378.851 200.24 378.515 200.792 378.275 201.416C378.059 202.04 377.951 202.688 377.951 203.36ZM412.236 212H408.132V209.228H408.06C407.652 210.092 407.028 210.848 406.188 211.496C405.348 212.12 404.208 212.432 402.768 212.432C401.616 212.432 400.632 212.252 399.816 211.892C399.024 211.508 398.376 211.004 397.872 210.38C397.368 209.732 397.008 209 396.792 208.184C396.576 207.368 396.468 206.516 396.468 205.628V194.72H400.788V203.468C400.788 203.948 400.812 204.488 400.86 205.088C400.908 205.664 401.028 206.216 401.22 206.744C401.436 207.248 401.748 207.68 402.156 208.04C402.588 208.376 403.188 208.544 403.956 208.544C404.676 208.544 405.276 208.424 405.756 208.184C406.26 207.944 406.668 207.62 406.98 207.212C407.316 206.804 407.556 206.336 407.7 205.808C407.844 205.28 407.916 204.728 407.916 204.152V194.72H412.236V212ZM432.112 197.132H432.184C432.52 196.412 433.108 195.764 433.948 195.188C434.812 194.588 435.916 194.288 437.26 194.288C438.412 194.288 439.384 194.48 440.176 194.864C440.992 195.248 441.652 195.752 442.156 196.376C442.66 197 443.02 197.72 443.236 198.536C443.452 199.352 443.56 200.204 443.56 201.092V212H439.24V203.252C439.24 202.772 439.216 202.244 439.168 201.668C439.12 201.068 438.988 200.516 438.772 200.012C438.58 199.484 438.268 199.052 437.836 198.716C437.404 198.356 436.816 198.176 436.072 198.176C435.352 198.176 434.74 198.296 434.236 198.536C433.756 198.776 433.348 199.1 433.012 199.508C432.7 199.916 432.472 200.384 432.328 200.912C432.184 201.44 432.112 201.992 432.112 202.568V212H427.792V184.784H432.112V197.132ZM451.92 204.872C452.064 206.168 452.568 207.176 453.432 207.896C454.296 208.616 455.34 208.976 456.564 208.976C457.644 208.976 458.544 208.76 459.264 208.328C460.008 207.872 460.656 207.308 461.208 206.636L464.304 208.976C463.296 210.224 462.168 211.112 460.92 211.64C459.672 212.168 458.364 212.432 456.996 212.432C455.7 212.432 454.476 212.216 453.324 211.784C452.172 211.352 451.176 210.74 450.336 209.948C449.496 209.156 448.824 208.208 448.32 207.104C447.84 205.976 447.6 204.728 447.6 203.36C447.6 201.992 447.84 200.756 448.32 199.652C448.824 198.524 449.496 197.564 450.336 196.772C451.176 195.98 452.172 195.368 453.324 194.936C454.476 194.504 455.7 194.288 456.996 194.288C458.196 194.288 459.288 194.504 460.272 194.936C461.28 195.344 462.132 195.944 462.828 196.736C463.548 197.528 464.1 198.512 464.484 199.688C464.892 200.84 465.096 202.172 465.096 203.684V204.872H451.92ZM460.776 201.632C460.752 200.36 460.356 199.364 459.588 198.644C458.82 197.9 457.752 197.528 456.384 197.528C455.088 197.528 454.056 197.9 453.288 198.644C452.544 199.388 452.088 200.384 451.92 201.632H460.776ZM479.936 209.624H479.828C479.204 210.608 478.412 211.328 477.452 211.784C476.492 212.216 475.436 212.432 474.284 212.432C473.492 212.432 472.712 212.324 471.944 212.108C471.2 211.892 470.528 211.568 469.928 211.136C469.352 210.704 468.884 210.164 468.524 209.516C468.164 208.868 467.984 208.112 467.984 207.248C467.984 206.312 468.152 205.52 468.488 204.872C468.824 204.2 469.268 203.648 469.82 203.216C470.396 202.76 471.056 202.4 471.8 202.136C472.544 201.872 473.312 201.68 474.104 201.56C474.92 201.416 475.736 201.332 476.552 201.308C477.368 201.26 478.136 201.236 478.856 201.236H479.936V200.768C479.936 199.688 479.564 198.884 478.82 198.356C478.076 197.804 477.128 197.528 475.976 197.528C475.064 197.528 474.212 197.696 473.42 198.032C472.628 198.344 471.944 198.776 471.368 199.328L469.1 197.06C470.06 196.076 471.176 195.368 472.448 194.936C473.744 194.504 475.076 194.288 476.444 194.288C477.668 194.288 478.7 194.432 479.54 194.72C480.38 194.984 481.076 195.332 481.628 195.764C482.18 196.196 482.6 196.7 482.888 197.276C483.2 197.828 483.416 198.392 483.536 198.968C483.68 199.544 483.764 200.108 483.788 200.66C483.812 201.188 483.824 201.656 483.824 202.064V212H479.936V209.624ZM479.684 204.26H478.784C478.184 204.26 477.512 204.284 476.768 204.332C476.024 204.38 475.316 204.5 474.644 204.692C473.996 204.86 473.444 205.124 472.988 205.484C472.532 205.82 472.304 206.3 472.304 206.924C472.304 207.332 472.388 207.68 472.556 207.968C472.748 208.232 472.988 208.46 473.276 208.652C473.564 208.844 473.888 208.988 474.248 209.084C474.608 209.156 474.968 209.192 475.328 209.192C476.816 209.192 477.908 208.844 478.604 208.148C479.324 207.428 479.684 206.456 479.684 205.232V204.26ZM502.151 209.408H502.079C501.455 210.464 500.615 211.232 499.559 211.712C498.503 212.192 497.363 212.432 496.139 212.432C494.795 212.432 493.595 212.204 492.539 211.748C491.507 211.268 490.619 210.62 489.875 209.804C489.131 208.988 488.567 208.028 488.183 206.924C487.799 205.82 487.607 204.632 487.607 203.36C487.607 202.088 487.811 200.9 488.219 199.796C488.627 198.692 489.191 197.732 489.911 196.916C490.655 196.1 491.543 195.464 492.575 195.008C493.607 194.528 494.735 194.288 495.959 194.288C496.775 194.288 497.495 194.372 498.119 194.54C498.743 194.708 499.295 194.924 499.775 195.188C500.255 195.452 500.663 195.74 500.999 196.052C501.335 196.34 501.611 196.628 501.827 196.916H501.935V184.784H506.255V212H502.151V209.408ZM491.927 203.36C491.927 204.032 492.035 204.68 492.251 205.304C492.491 205.928 492.827 206.48 493.259 206.96C493.715 207.44 494.255 207.824 494.879 208.112C495.503 208.4 496.211 208.544 497.003 208.544C497.795 208.544 498.503 208.4 499.127 208.112C499.751 207.824 500.279 207.44 500.711 206.96C501.167 206.48 501.503 205.928 501.719 205.304C501.959 204.68 502.079 204.032 502.079 203.36C502.079 202.688 501.959 202.04 501.719 201.416C501.503 200.792 501.167 200.24 500.711 199.76C500.279 199.28 499.751 198.896 499.127 198.608C498.503 198.32 497.795 198.176 497.003 198.176C496.211 198.176 495.503 198.32 494.879 198.608C494.255 198.896 493.715 199.28 493.259 199.76C492.827 200.24 492.491 200.792 492.251 201.416C492.035 202.04 491.927 202.688 491.927 203.36ZM511.254 194.72H515.574V212H511.254V194.72ZM510.642 188.852C510.642 188.156 510.894 187.556 511.398 187.052C511.926 186.524 512.586 186.26 513.378 186.26C514.17 186.26 514.83 186.512 515.358 187.016C515.91 187.496 516.186 188.108 516.186 188.852C516.186 189.596 515.91 190.22 515.358 190.724C514.83 191.204 514.17 191.444 513.378 191.444C512.586 191.444 511.926 191.192 511.398 190.688C510.894 190.16 510.642 189.548 510.642 188.852ZM520.534 194.72H524.638V197.492H524.71C525.118 196.628 525.742 195.884 526.582 195.26C527.422 194.612 528.562 194.288 530.002 194.288C531.154 194.288 532.126 194.48 532.918 194.864C533.734 195.248 534.394 195.752 534.898 196.376C535.402 197 535.762 197.72 535.978 198.536C536.194 199.352 536.302 200.204 536.302 201.092V212H531.982V203.252C531.982 202.772 531.958 202.244 531.91 201.668C531.862 201.068 531.73 200.516 531.514 200.012C531.322 199.484 531.01 199.052 530.578 198.716C530.146 198.356 529.558 198.176 528.814 198.176C528.094 198.176 527.482 198.296 526.978 198.536C526.498 198.776 526.09 199.1 525.754 199.508C525.442 199.916 525.214 200.384 525.07 200.912C524.926 201.44 524.854 201.992 524.854 202.568V212H520.534V194.72ZM558.99 194.72V210.452C558.99 212.012 558.798 213.416 558.414 214.664C558.03 215.936 557.43 217.004 556.614 217.868C555.822 218.756 554.814 219.44 553.59 219.92C552.366 220.4 550.914 220.64 549.234 220.64C547.626 220.64 546.102 220.436 544.662 220.028C543.222 219.62 541.89 218.876 540.666 217.796L543.258 214.268C544.122 215.06 545.022 215.672 545.958 216.104C546.894 216.536 547.974 216.752 549.198 216.752C550.23 216.752 551.094 216.608 551.79 216.32C552.51 216.032 553.074 215.636 553.482 215.132C553.914 214.628 554.214 214.016 554.382 213.296C554.574 212.6 554.67 211.82 554.67 210.956V209.696H554.598C553.974 210.536 553.146 211.172 552.114 211.604C551.082 212.012 550.026 212.216 548.946 212.216C547.65 212.216 546.474 211.988 545.418 211.532C544.362 211.052 543.45 210.416 542.682 209.624C541.938 208.832 541.362 207.896 540.954 206.816C540.546 205.736 540.342 204.584 540.342 203.36C540.342 202.088 540.534 200.9 540.918 199.796C541.302 198.692 541.866 197.732 542.61 196.916C543.354 196.1 544.242 195.464 545.274 195.008C546.33 194.528 547.53 194.288 548.874 194.288C550.098 194.288 551.238 194.528 552.294 195.008C553.35 195.488 554.19 196.256 554.814 197.312H554.886V194.72H558.99ZM549.774 198.176C549.006 198.176 548.31 198.308 547.686 198.572C547.062 198.812 546.522 199.16 546.066 199.616C545.634 200.048 545.286 200.588 545.022 201.236C544.782 201.86 544.662 202.556 544.662 203.324C544.662 204.02 544.782 204.668 545.022 205.268C545.286 205.868 545.646 206.396 546.102 206.852C546.558 207.308 547.098 207.668 547.722 207.932C548.346 208.196 549.018 208.328 549.738 208.328C550.53 208.328 551.238 208.196 551.862 207.932C552.51 207.668 553.05 207.32 553.482 206.888C553.938 206.432 554.286 205.892 554.526 205.268C554.766 204.644 554.886 203.972 554.886 203.252C554.886 201.74 554.43 200.516 553.518 199.58C552.606 198.644 551.358 198.176 549.774 198.176ZM574.534 194.72H578.638V197.492H578.71C579.118 196.628 579.742 195.884 580.582 195.26C581.422 194.612 582.562 194.288 584.002 194.288C585.154 194.288 586.126 194.48 586.918 194.864C587.734 195.248 588.394 195.752 588.898 196.376C589.402 197 589.762 197.72 589.978 198.536C590.194 199.352 590.302 200.204 590.302 201.092V212H585.982V203.252C585.982 202.772 585.958 202.244 585.91 201.668C585.862 201.068 585.73 200.516 585.514 200.012C585.322 199.484 585.01 199.052 584.578 198.716C584.146 198.356 583.558 198.176 582.814 198.176C582.094 198.176 581.482 198.296 580.978 198.536C580.498 198.776 580.09 199.1 579.754 199.508C579.442 199.916 579.214 200.384 579.07 200.912C578.926 201.44 578.854 201.992 578.854 202.568V212H574.534V194.72ZM598.662 204.872C598.806 206.168 599.31 207.176 600.174 207.896C601.038 208.616 602.082 208.976 603.306 208.976C604.386 208.976 605.286 208.76 606.006 208.328C606.75 207.872 607.398 207.308 607.95 206.636L611.046 208.976C610.038 210.224 608.91 211.112 607.662 211.64C606.414 212.168 605.106 212.432 603.738 212.432C602.442 212.432 601.218 212.216 600.066 211.784C598.914 211.352 597.918 210.74 597.078 209.948C596.238 209.156 595.566 208.208 595.062 207.104C594.582 205.976 594.342 204.728 594.342 203.36C594.342 201.992 594.582 200.756 595.062 199.652C595.566 198.524 596.238 197.564 597.078 196.772C597.918 195.98 598.914 195.368 600.066 194.936C601.218 194.504 602.442 194.288 603.738 194.288C604.938 194.288 606.03 194.504 607.014 194.936C608.022 195.344 608.874 195.944 609.57 196.736C610.29 197.528 610.842 198.512 611.226 199.688C611.634 200.84 611.838 202.172 611.838 203.684V204.872H598.662ZM607.518 201.632C607.494 200.36 607.098 199.364 606.33 198.644C605.562 197.9 604.494 197.528 603.126 197.528C601.83 197.528 600.798 197.9 600.03 198.644C599.286 199.388 598.83 200.384 598.662 201.632H607.518ZM620.342 202.712L614.366 194.72H619.622L623.078 199.904L626.822 194.72H631.754L625.85 202.712L632.798 212H627.542L623.042 205.808L618.506 212H613.394L620.342 202.712ZM633.198 198.392V194.72H636.762V189.716H641.082V194.72H645.834V198.392H641.082V205.952C641.082 206.816 641.238 207.5 641.55 208.004C641.886 208.508 642.534 208.76 643.494 208.76C643.878 208.76 644.298 208.724 644.754 208.652C645.21 208.556 645.57 208.412 645.834 208.22V211.856C645.378 212.072 644.814 212.216 644.142 212.288C643.494 212.384 642.918 212.432 642.414 212.432C641.262 212.432 640.314 212.3 639.57 212.036C638.85 211.796 638.274 211.424 637.842 210.92C637.434 210.392 637.146 209.744 636.978 208.976C636.834 208.208 636.762 207.32 636.762 206.312V198.392H633.198ZM654.353 204.476V202.496C654.353 201.968 654.377 201.524 654.425 201.164C654.497 200.78 654.605 200.444 654.749 200.156C654.917 199.844 655.121 199.556 655.361 199.292C655.625 199.004 655.937 198.668 656.297 198.284L659.069 195.476C659.669 194.876 659.969 194.096 659.969 193.136C659.969 192.2 659.657 191.444 659.033 190.868C658.433 190.268 657.665 189.968 656.729 189.968C655.721 189.968 654.893 190.316 654.245 191.012C653.597 191.684 653.225 192.512 653.129 193.496L648.521 193.136C648.665 191.984 648.965 190.964 649.421 190.076C649.877 189.164 650.465 188.396 651.185 187.772C651.929 187.148 652.781 186.68 653.741 186.368C654.701 186.032 655.757 185.864 656.909 185.864C657.989 185.864 658.985 186.02 659.897 186.332C660.833 186.644 661.637 187.1 662.309 187.7C663.005 188.276 663.545 189.008 663.929 189.896C664.313 190.76 664.505 191.756 664.505 192.884C664.505 193.676 664.397 194.372 664.181 194.972C663.965 195.572 663.677 196.124 663.317 196.628C662.957 197.132 662.537 197.612 662.057 198.068C661.601 198.524 661.109 199.004 660.581 199.508C660.245 199.82 659.957 200.096 659.717 200.336C659.477 200.576 659.273 200.828 659.105 201.092C658.961 201.332 658.853 201.62 658.781 201.956C658.709 202.268 658.673 202.652 658.673 203.108V204.476H654.353ZM653.633 209.48C653.633 208.712 653.909 208.052 654.461 207.5C655.037 206.948 655.721 206.672 656.513 206.672C657.281 206.672 657.953 206.936 658.529 207.464C659.105 207.992 659.393 208.64 659.393 209.408C659.393 210.176 659.105 210.836 658.529 211.388C657.977 211.94 657.305 212.216 656.513 212.216C656.129 212.216 655.757 212.144 655.397 212C655.061 211.856 654.761 211.664 654.497 211.424C654.233 211.184 654.017 210.896 653.849 210.56C653.705 210.224 653.633 209.864 653.633 209.48Z" fill="white"/>
<defs>
<linearGradient id="paint0_linear_118_981" x1="169" y1="126" x2="1675" y2="126" gradientUnits="userSpaceOnUse">
<stop stop-color="#334949"/>
<stop offset="0.3" stop-color="#5E7B7B"/>
<stop offset="1" stop-color="#FCFFFF"/>
</linearGradient>
</defs>
</svg>
